<svg xmlns="http://www.w3.org/2000/svg" viewBox="0 0 512 512" width="512" height="512">
  <defs>
    <radialGradient id="bg" cx="50%" cy="25%" r="75%">
      <stop offset="0%" stop-color="#6D28D9"/>
      <stop offset="38%" stop-color="#4C1D95"/>
      <stop offset="70%" stop-color="#1E0A3C"/>
      <stop offset="100%" stop-color="#09090B"/>
    </radialGradient>
  </defs>
  <rect width="512" height="512" fill="url(#bg)"/>
  <!-- vector.svg (120x133) scaled to ~336x372, centered in 512x512 -->
  <g transform="translate(88, 70) scale(2.8)">
    <path d="M10.4902 16.0023C14.4865 8.30078 16.4847 4.45003 19.9641 2.27712C20.0673 2.2127 20.1712 2.14953 20.2759 2.08764C23.8072 0 28.1455 0 36.8222 0H97.7613C109.698 0 115.667 0 118.359 3.76162C118.529 3.99861 118.687 4.2437 118.833 4.49602C121.148 8.50101 118.685 13.9375 113.758 24.8105C110.073 32.9419 108.231 37.0076 104.774 39.3755C104.544 39.5329 104.31 39.684 104.071 39.8284C100.488 42 96.0242 42 87.097 42H26.2894C13.351 42 6.88177 42 4.22714 37.8483C4.15337 37.7329 4.08224 37.6159 4.01381 37.4973C1.55138 33.2288 4.53099 27.4866 10.4902 16.0023Z" fill="white"/>
    <path d="M30 45H80.7252C89.8623 45 94.4309 45 97.0539 46.0202C104.75 49.0134 108.579 57.6635 105.621 65.3729C104.613 68.0006 101.542 71.3827 95.3991 78.1469C93.9915 79.6969 93.2877 80.472 92.5178 81.1198C90.3395 82.953 87.6845 84.1283 84.863 84.5086C83.8658 84.643 82.8189 84.643 80.7252 84.643H79.8507C69.3305 84.643 64.0702 84.643 59.49 85.9972C52.0958 88.1834 45.7006 92.8898 41.4145 99.2994C38.7595 103.27 37.1954 108.292 34.067 118.336L33.5162 120.105C32.1862 124.375 31.5211 126.511 30.3099 128.145C28.877 130.078 26.8959 131.536 24.6238 132.33C22.7032 133 20.4667 133 15.9938 133H11.9344C6.34136 133 3.54486 133 1.79397 131.279C1.76945 131.255 1.74516 131.231 1.72106 131.206C0 129.455 0 126.659 0 121.066V75C0 60.8579 0 53.7868 4.39339 49.3934C8.7868 45 15.8579 45 30 45Z" fill="white"/>
  </g>
</svg>
