<svg width="1073" height="364" viewBox="0 0 1073 364" fill="none" xmlns="http://www.w3.org/2000/svg">
  <defs>
    <linearGradient id="logoGradient" x1="0" y1="0" x2="1073" y2="364" gradientUnits="userSpaceOnUse">
      <stop offset="0%" stop-color="#534AB7"/>
      <stop offset="100%" stop-color="#E879F9"/>
    </linearGradient>
  </defs>
<path d="M12 212C12 132 72 72 152 72H312" stroke="url(#logoGradient)" stroke-width="24" stroke-linecap="round" stroke-linejoin="round"/>
<path d="M312 12V352" stroke="url(#logoGradient)" stroke-width="24" stroke-linecap="round" stroke-linejoin="round"/>
<path d="M312 72H592C592 122 552 152 502 152H312" stroke="url(#logoGradient)" stroke-width="24" stroke-linecap="round" stroke-linejoin="round"/>
<path d="M12 212H592" stroke="url(#logoGradient)" stroke-width="24" stroke-linecap="round" stroke-linejoin="round"/>
<path d="M312 212H592C592 262 552 292 502 292H312" stroke="url(#logoGradient)" stroke-width="24" stroke-linecap="round" stroke-linejoin="round"/>
<path d="M676.32 154V86.8H720.096V97.264H689.28V115.216H714.048V125.392H689.28V154H676.32ZM725.82 154V86.8H738.78V154H725.82ZM762.455 155.152C758.679 155.152 755.543 154.512 753.047 153.232C750.615 151.952 748.822 150.224 747.671 148.048C746.519 145.872 745.943 143.472 745.943 140.848C745.943 137.904 746.679 135.312 748.151 133.072C749.687 130.832 751.991 129.104 755.062 127.888C758.135 126.608 762.007 125.968 766.679 125.968H778.679C778.679 123.6 778.327 121.648 777.623 120.112C776.983 118.576 775.959 117.424 774.551 116.656C773.207 115.888 771.479 115.504 769.367 115.504C766.871 115.504 764.727 116.08 762.935 117.232C761.207 118.32 760.119 120.048 759.671 122.416H747.095C747.479 118.896 748.631 115.856 750.551 113.296C752.535 110.736 755.127 108.752 758.327 107.344C761.591 105.936 765.271 105.232 769.367 105.232C773.975 105.232 777.943 106 781.271 107.536C784.599 109.008 787.159 111.216 788.951 114.16C790.743 117.04 791.639 120.56 791.639 124.72V154H780.887L779.543 146.608H779.159C778.135 148.016 777.015 149.264 775.799 150.352C774.647 151.44 773.367 152.336 771.959 153.04C770.551 153.744 769.047 154.256 767.447 154.576C765.847 154.96 764.183 155.152 762.455 155.152ZM766.679 145.168C768.471 145.168 770.007 144.88 771.286 144.304C772.631 143.664 773.783 142.832 774.743 141.808C775.703 140.784 776.439 139.6 776.951 138.256C777.527 136.848 777.911 135.408 778.103 133.936H768.119C766.135 133.936 764.503 134.192 763.223 134.704C762.007 135.152 761.111 135.824 760.535 136.72C759.959 137.552 759.671 138.544 759.671 139.696C759.671 140.848 759.959 141.84 760.535 142.672C761.111 143.504 761.943 144.144 763.031 144.592C764.119 144.976 765.335 145.168 766.679 145.168ZM819.974 154C816.582 154 813.606 153.488 811.046 152.464C808.55 151.376 806.598 149.616 805.19 147.184C803.782 144.688 803.078 141.296 803.078 137.008V116.752H794.918V106.384H803.078L804.518 93.424H816.038V106.384H828.71V116.752H816.038V137.2C816.038 139.504 816.518 141.104 817.478 142C818.438 142.832 820.07 143.248 822.374 143.248H828.422V154H819.974ZM833.539 154V86.8H858.787C864.227 86.8 868.707 87.728 872.227 89.584C875.811 91.376 878.467 93.84 880.195 96.976C881.987 100.112 882.883 103.664 882.883 107.632C882.883 111.28 882.019 114.672 880.291 117.808C878.627 120.944 876.003 123.504 872.419 125.488C868.899 127.408 864.355 128.368 858.787 128.368H846.499V154H833.539ZM846.499 117.904H858.019C862.115 117.904 865.059 116.976 866.851 115.12C868.707 113.264 869.635 110.768 869.635 107.632C869.635 104.368 868.707 101.84 866.851 100.048C865.059 98.256 862.115 97.36 858.019 97.36H846.499V117.904ZM906.701 155.152C902.797 155.152 899.469 154.32 896.717 152.656C893.965 150.992 891.853 148.528 890.381 145.264C888.909 141.936 888.173 137.872 888.173 133.072V106.384H901.037V131.92C901.037 135.888 901.837 138.928 903.437 141.04C905.101 143.152 907.661 144.208 911.117 144.208C913.357 144.208 915.309 143.696 916.973 142.672C918.701 141.584 920.045 140.048 921.005 138.064C921.965 136.08 922.445 133.712 922.445 130.96V106.384H935.405V154H924.365L923.213 146.416H922.829C921.357 149.104 919.277 151.248 916.589 152.848C913.965 154.384 910.669 155.152 906.701 155.152ZM943.121 154V106.384H954.161L955.313 116.848H955.697C957.105 113.456 958.641 110.96 960.305 109.36C961.969 107.696 963.857 106.608 965.969 106.096C968.145 105.52 970.577 105.232 973.265 105.232V118.96H969.713C967.537 118.96 965.585 119.216 963.857 119.728C962.193 120.176 960.785 120.944 959.633 122.032C958.481 123.056 957.585 124.432 956.945 126.16C956.369 127.888 956.081 129.968 956.081 132.4V154H943.121ZM997.589 155.152C993.365 155.152 989.621 154.448 986.357 153.04C983.157 151.632 980.565 149.712 978.581 147.28C976.661 144.784 975.541 141.968 975.221 138.832H988.181C988.437 139.984 988.949 141.072 989.717 142.096C990.485 143.12 991.509 143.952 992.789 144.592C994.133 145.168 995.669 145.456 997.397 145.456C999.189 145.456 1000.63 145.232 1001.72 144.784C1002.81 144.272 1003.61 143.632 1004.12 142.864C1004.69 142.096 1004.98 141.264 1004.98 140.368C1004.98 139.152 1004.57 138.224 1003.73 137.584C1002.97 136.88 1001.81 136.272 1000.28 135.76C998.805 135.248 997.045 134.704 994.997 134.128C992.885 133.552 990.741 132.944 988.565 132.304C986.453 131.664 984.501 130.864 982.709 129.904C980.917 128.88 979.477 127.6 978.389 126.064C977.365 124.464 976.853 122.48 976.853 120.112C976.853 117.36 977.621 114.864 979.157 112.624C980.693 110.384 982.901 108.592 985.781 107.248C988.725 105.904 992.213 105.232 996.245 105.232C1002.01 105.232 1006.58 106.544 1009.97 109.168C1013.43 111.792 1015.45 115.408 1016.02 120.016H1003.83C1003.51 118.416 1002.68 117.168 1001.33 116.272C1000.05 115.376 998.357 114.928 996.245 114.928C994.005 114.928 992.277 115.376 991.061 116.272C989.909 117.104 989.333 118.128 989.333 119.344C989.333 120.24 989.717 121.008 990.485 121.648C991.253 122.224 992.373 122.768 993.845 123.28C995.381 123.728 997.205 124.24 999.317 124.816C1002.71 125.712 1005.81 126.672 1008.63 127.696C1011.45 128.72 1013.69 130.128 1015.35 131.92C1017.01 133.648 1017.85 136.112 1017.85 139.312C1017.91 142.384 1017.11 145.104 1015.45 147.472C1013.78 149.84 1011.45 151.728 1008.44 153.136C1005.43 154.48 1001.81 155.152 997.589 155.152ZM1046.98 155.152C1042.12 155.152 1037.8 154.128 1034.02 152.08C1030.31 150.032 1027.4 147.152 1025.29 143.44C1023.17 139.728 1022.12 135.472 1022.12 130.672C1022.12 125.68 1023.14 121.296 1025.19 117.52C1027.3 113.68 1030.21 110.672 1033.93 108.496C1037.7 106.32 1042.05 105.232 1046.98 105.232C1051.78 105.232 1055.97 106.256 1059.56 108.304C1063.14 110.352 1065.96 113.168 1068.01 116.752C1070.05 120.272 1071.08 124.272 1071.08 128.752C1071.08 129.392 1071.05 130.128 1070.98 130.96C1070.98 131.728 1070.95 132.528 1070.89 133.36H1031.33V125.392H1057.93C1057.73 122.384 1056.61 119.984 1054.57 118.192C1052.58 116.4 1050.09 115.504 1047.08 115.504C1044.84 115.504 1042.79 116.016 1040.93 117.04C1039.08 118 1037.61 119.504 1036.52 121.552C1035.43 123.536 1034.89 126.064 1034.89 129.136V131.92C1034.89 134.544 1035.4 136.816 1036.42 138.736C1037.45 140.592 1038.85 142.032 1040.65 143.056C1042.5 144.08 1044.58 144.592 1046.89 144.592C1049.25 144.592 1051.24 144.08 1052.84 143.056C1054.44 141.968 1055.65 140.592 1056.49 138.928H1069.64C1068.74 141.936 1067.24 144.688 1065.13 147.184C1063.01 149.616 1060.42 151.568 1057.35 153.04C1054.28 154.448 1050.82 155.152 1046.98 155.152Z" fill="url(#logoGradient)"/>
<path d="M676.32 274V206.8H720.096V217.264H689.28V235.216H714.048V245.392H689.28V274H676.32ZM725.82 274V206.8H738.78V274H725.82ZM769.943 275.152C765.335 275.152 761.175 274.096 757.463 271.984C753.751 269.872 750.807 266.928 748.631 263.152C746.519 259.376 745.463 255.056 745.463 250.192C745.463 245.264 746.551 240.944 748.727 237.232C750.903 233.456 753.847 230.512 757.559 228.4C761.271 226.288 765.399 225.232 769.943 225.232C774.551 225.232 778.711 226.288 782.423 228.4C786.135 230.512 789.047 233.456 791.159 237.232C793.335 240.944 794.423 245.264 794.423 250.192C794.423 255.12 793.335 259.472 791.159 263.248C788.983 266.96 786.039 269.872 782.327 271.984C778.679 274.096 774.551 275.152 769.943 275.152ZM769.847 264.208C771.959 264.208 773.847 263.696 775.511 262.672C777.239 261.648 778.615 260.112 779.639 258.064C780.663 255.952 781.175 253.328 781.175 250.192C781.175 247.056 780.663 244.464 779.639 242.416C778.615 240.304 777.239 238.736 775.511 237.712C773.847 236.688 772.023 236.176 770.039 236.176C767.991 236.176 766.103 236.688 764.375 237.712C762.647 238.736 761.271 240.304 760.247 242.416C759.223 244.464 758.711 247.056 758.711 250.192C758.711 253.328 759.223 255.952 760.247 258.064C761.271 260.112 762.615 261.648 764.279 262.672C766.007 263.696 767.863 264.208 769.847 264.208ZM808.052 274L795.668 226.384H808.436L816.404 264.88H816.788L825.62 226.384H840.404L849.332 264.784H849.716L857.588 226.384H870.452L857.876 274H842.42L833.204 235.888H832.82L823.508 274H808.052Z" fill="url(#logoGradient)"/>
</svg>
