<svg width="2221" height="584" viewBox="0 0 2221 584" fill="none" xmlns="http://www.w3.org/2000/svg">
<path d="M470.472 301.783L460.499 305.934L431.962 317.809H431.956L347.655 352.898C340.594 355.842 332.65 355.836 325.589 352.898L240.854 317.634H240.849L212.317 305.753L202.344 301.602C183.352 293.697 183.352 266.798 202.344 258.893L225.467 249.267C231.851 246.61 239.033 246.61 245.418 249.267L296.717 270.626L315.911 278.614C319.525 280.122 323.263 281.19 327.079 281.821C329.805 282.277 332.578 282.501 335.375 282.501C338.527 282.501 341.647 282.215 344.711 281.634C348.166 280.993 351.548 279.985 354.832 278.614L374.844 270.286L426.156 248.931C432.539 246.274 439.719 246.274 446.102 248.931L470.472 259.074C489.459 266.979 489.459 293.878 470.472 301.783ZM470.472 376.55L347.655 427.664C340.594 430.603 332.65 430.603 325.589 427.664L202.344 376.368C183.352 368.463 183.352 341.566 202.344 333.659C208.727 331.003 215.906 331.003 222.29 333.66L317.155 373.146C323.357 375.727 329.903 377.032 336.619 377.032C343.335 377.032 349.882 375.727 356.083 373.146L450.527 333.84C456.91 331.183 464.088 331.183 470.472 333.84C489.459 341.746 489.459 368.644 470.472 376.55ZM201.094 164.361L323.905 113.246C330.967 110.302 338.911 110.302 345.972 113.246L469.223 164.542C488.208 172.448 488.208 199.346 469.223 207.251L436.13 221.025L407.592 232.905L346.406 258.366C345.768 258.63 345.125 258.871 344.475 259.09C338.763 260.998 332.595 261.063 326.849 259.277C326.001 259.014 325.165 258.71 324.338 258.366L263.979 233.239H263.974L235.431 221.363L201.094 207.07C182.102 199.165 182.102 172.268 201.094 164.361ZM626.573 31.4519L420.767 0.657338C409.054 -1.09466 397.083 0.681364 386.383 5.75868L361.014 25.9866C345.505 38.3546 323.273 37.4813 308.779 23.936L291.125 7.43466C279.757 1.29068 266.701 -0.993299 253.922 0.925363L50.6732 31.4519C22.6866 31.4519 0 54.1386 0 82.1251V458.781C0 486.768 22.6866 509.455 50.6732 509.455L251.078 530.747C265.809 532.311 279.811 537.945 291.519 547.02L303.465 565.633C318.553 589.144 352.518 590.243 369.094 567.757L385.987 544.84C397.015 537.164 409.803 532.399 423.166 530.984L626.573 509.455C654.56 509.455 677.248 486.768 677.248 458.781V82.1251C677.248 54.1386 654.56 31.4519 626.573 31.4519Z" fill="#C0D72F"/>
<path d="M1033.29 116.794C1028.46 116.794 1024.31 120.206 1023.37 124.942L1001.67 234.583L1000.01 243.227C997.918 254.12 982.349 254.188 980.164 243.314L978.349 234.284L953.81 124.697C952.776 120.078 948.676 116.794 943.942 116.794H821.941L794.139 467.172H884.125L893.392 261.191C893.65 250.254 909.322 248.716 911.701 259.395L946.669 416.367C948.729 425.616 956.934 432.193 966.409 432.193H1011.4C1021.15 432.193 1029.51 425.24 1031.29 415.653L1060.12 260.003C1062.02 249.73 1077.06 250.754 1077.55 261.191L1092.8 467.172H1185.77L1160.06 116.794H1033.29Z" fill="#C0D72F"/>
<path d="M1335.13 414.258C1335.13 414.258 1334.53 414.856 1333.34 416.051C1332.14 417.048 1330.35 418.144 1327.96 419.341C1325.76 420.337 1323.37 420.834 1320.78 420.834C1303.84 420.834 1295.37 408.378 1295.37 383.465C1295.37 369.514 1298.95 359.25 1306.13 352.673C1313.3 345.896 1322.97 342.508 1335.13 342.508V414.258ZM1427.51 322.178C1427.5 300.256 1425.81 282.219 1422.43 268.068C1419.04 253.718 1413.26 241.958 1405.09 232.79C1397.11 223.423 1386.65 216.846 1373.69 213.059C1360.74 209.073 1344.3 207.08 1324.37 207.08C1301.84 207.08 1279.72 210.468 1258 217.245C1236.27 223.821 1218.63 231.494 1205.08 240.264L1224.21 280.922C1231.79 276.936 1242.25 273.548 1255.6 270.758C1268.96 267.768 1281.81 266.273 1294.17 266.274C1308.52 266.274 1318.88 268.765 1325.26 273.748C1331.84 278.73 1335.13 287.3 1335.13 299.458V304.84C1328.35 304.84 1321.27 305.138 1313.9 305.736C1306.53 306.334 1298.16 307.53 1288.79 309.324C1279.42 311.116 1270.45 313.408 1261.88 316.2C1253.51 318.79 1245.14 322.477 1236.77 327.261C1228.4 331.845 1221.22 337.127 1215.25 343.106C1209.27 349.085 1204.38 356.459 1200.6 365.229C1196.81 373.799 1194.92 383.266 1194.92 393.629C1194.92 446.844 1221.82 473.451 1275.64 473.451C1283.61 473.451 1291.38 472.255 1298.95 469.863C1306.53 467.671 1312.91 464.981 1318.09 461.793C1323.47 458.603 1328.15 455.414 1332.14 452.225C1336.33 449.036 1339.41 446.246 1341.4 443.854L1344.39 440.566L1353.96 467.173H1435.88L1427.51 443.854V322.178Z" fill="#C0D72F"/>
<path d="M1637.34 207.079C1629.57 207.079 1621.59 208.674 1613.42 211.863C1605.45 214.853 1598.57 218.539 1592.79 222.924C1587.02 227.109 1581.73 231.394 1576.95 235.779C1572.37 240.164 1568.88 243.95 1566.49 247.139L1562.9 251.623V213.058H1512.08L1447.8 230.696V262.686L1465.74 273.746V467.172H1562.3V292.88C1562.7 292.481 1563.4 291.883 1564.4 291.086C1565.59 290.09 1566.39 289.393 1566.79 288.994C1567.38 288.595 1568.18 287.997 1569.18 287.2C1570.38 286.203 1571.27 285.505 1571.87 285.107C1572.47 284.708 1573.26 284.21 1574.26 283.612C1575.26 282.815 1576.15 282.317 1576.95 282.118C1577.75 281.719 1578.65 281.32 1579.64 280.922C1580.83 280.324 1581.84 279.926 1582.63 279.726C1583.63 279.527 1584.63 279.327 1585.62 279.127C1586.82 278.928 1588.01 278.828 1589.21 278.828C1605.75 278.828 1613.72 288.196 1613.12 306.931V467.172H1711.78V315.602C1711.78 314.206 1711.88 312.312 1712.08 309.92V304.539C1712.08 269.462 1706.4 244.449 1695.04 229.5C1683.88 214.553 1664.65 207.079 1637.34 207.079Z" fill="#C0D72F"/>
<path d="M1869.4 414.258C1869.4 414.258 1868.8 414.856 1867.6 416.051C1866.41 417.048 1864.61 418.144 1862.22 419.341C1860.03 420.336 1857.64 420.834 1855.04 420.834C1838.11 420.834 1829.64 408.378 1829.64 383.465C1829.64 369.514 1833.22 359.25 1840.4 352.673C1847.57 345.896 1857.24 342.508 1869.4 342.508V414.258ZM1961.77 322.178C1961.77 300.256 1960.08 282.219 1956.69 268.068C1953.3 253.718 1947.52 241.958 1939.35 232.79C1931.38 223.423 1920.92 216.846 1907.96 213.059C1895.01 209.073 1878.56 207.08 1858.63 207.08C1836.11 207.08 1813.99 210.468 1792.27 217.245C1770.54 223.821 1752.9 231.494 1739.35 240.264L1758.48 280.922C1766.06 276.936 1776.52 273.548 1789.87 270.758C1803.23 267.768 1816.08 266.273 1828.44 266.274C1842.79 266.274 1853.15 268.765 1859.53 273.748C1866.11 278.73 1869.4 287.3 1869.4 299.458V304.84C1862.62 304.84 1855.54 305.138 1848.17 305.736C1840.8 306.334 1832.42 307.53 1823.06 309.324C1813.69 311.116 1804.72 313.408 1796.15 316.2C1787.78 318.79 1779.41 322.477 1771.04 327.261C1762.67 331.845 1755.5 337.127 1749.51 343.106C1743.53 349.085 1738.65 356.459 1734.87 365.229C1731.08 373.799 1729.19 383.266 1729.19 393.629C1729.18 446.844 1756.09 473.451 1809.91 473.451C1817.88 473.451 1825.65 472.255 1833.22 469.863C1840.8 467.671 1847.17 464.981 1852.35 461.793C1857.74 458.603 1862.42 455.414 1866.41 452.225C1870.59 449.036 1873.68 446.246 1875.67 443.854L1878.66 440.566L1888.23 467.173H1970.14L1961.77 443.854V322.178Z" fill="#C0D72F"/>
<path d="M2119.89 414.258C2119.89 414.258 2119.3 414.855 2118.1 416.051C2116.9 417.048 2115.11 418.144 2112.72 419.341C2110.52 420.336 2108.13 420.834 2105.54 420.834C2088.6 420.834 2080.13 408.378 2080.13 383.465C2080.13 369.514 2083.72 359.25 2090.89 352.673C2098.07 345.896 2107.73 342.508 2119.89 342.508V414.258ZM2212.27 443.854V322.178C2212.27 300.256 2210.58 282.219 2207.19 268.068C2203.8 253.718 2198.02 241.958 2189.85 232.79C2181.88 223.423 2171.41 216.846 2158.46 213.059C2145.5 209.073 2129.06 207.08 2109.13 207.08C2086.61 207.08 2064.48 210.468 2042.76 217.245C2021.04 223.821 2003.4 231.494 1989.85 240.264L2008.98 280.922C2016.55 276.936 2027.02 273.548 2040.37 270.758C2053.72 267.768 2066.58 266.273 2078.93 266.274C2093.29 266.274 2103.65 268.765 2110.03 273.748C2116.61 278.73 2119.89 287.3 2119.89 299.458V304.84C2113.12 304.84 2106.04 305.138 2098.67 305.736C2091.29 306.334 2082.92 307.53 2073.55 309.324C2064.19 311.116 2055.22 313.408 2046.65 316.2C2038.28 318.79 2029.9 322.477 2021.54 327.261C2013.17 331.845 2005.99 337.127 2000.01 343.106C1994.03 349.085 1989.15 356.459 1985.36 365.229C1981.57 373.799 1979.68 383.266 1979.68 393.629C1979.68 446.844 2006.59 473.451 2060.4 473.451C2068.37 473.451 2076.14 472.255 2083.72 469.863C2091.29 467.671 2097.67 464.981 2102.85 461.793C2108.23 458.603 2112.91 455.414 2116.9 452.225C2121.09 449.036 2124.18 446.246 2126.17 443.854L2129.16 440.566L2138.72 467.173H2220.64L2212.27 443.854Z" fill="#C0D72F"/>
</svg>
