<svg width="114" height="99" viewBox="0 0 114 99" fill="none" xmlns="http://www.w3.org/2000/svg">
<path fill-rule="evenodd" clip-rule="evenodd" d="M61.998 1.77209C63.6405 0.403351 65.7811 -0.215522 67.9004 0.067013L107.368 5.32971C111.165 5.83607 114 9.07472 114 12.9049V77.9908C114 81.917 111.025 85.2047 107.118 85.5953L67.8711 89.5201C66.4522 89.662 65.1573 90.392 64.3018 91.5328L61.5215 95.2389C58.4645 99.3147 52.3509 99.3147 49.2939 95.2389L46.498 91.5114C45.65 90.3807 44.3701 89.6532 42.9648 89.5026L6.82812 85.6305C2.94485 85.2144 0.000277128 81.9373 0 78.0319V12.8531C0 9.04986 2.79647 5.82462 6.56152 5.28674L42.8721 0.100216C45.0131 -0.205556 47.1832 0.410079 48.8447 1.79455L52.1465 4.54553C54.0359 6.11971 56.7806 6.11989 58.6699 4.54553L61.998 1.77209ZM75.1143 59.1217C74.066 58.6849 72.879 58.7261 71.8633 59.234L58.1641 66.0836C57.064 66.6336 55.769 66.6336 54.6689 66.0836L40.9697 59.234C39.954 58.7261 38.767 58.6849 37.7188 59.1217L33.8115 60.7496C30.6055 62.0855 30.6057 66.6273 33.8115 67.9635L54.9131 76.7584C55.8752 77.1594 56.9578 77.1594 57.9199 76.7584L79.0215 67.9635C82.2273 66.6273 82.2275 62.0855 79.0215 60.7496L75.1143 59.1217ZM75.7021 43.736C74.688 43.3134 73.5425 43.3369 72.5469 43.8014L58.0684 50.5563C57.0213 51.0447 55.8117 51.0447 54.7646 50.5563L40.2861 43.8014C39.2905 43.3369 38.145 43.3134 37.1309 43.736L33.8105 45.1197C30.6049 46.4558 30.6049 50.9965 33.8105 52.3326L54.9131 61.1285C55.8752 61.5295 56.9578 61.5295 57.9199 61.1285L79.0225 52.3326C82.2282 50.9965 82.2282 46.4558 79.0225 45.1197L75.7021 43.736ZM57.9199 20.693C56.9578 20.292 55.8752 20.292 54.9131 20.693L33.8096 29.4889C30.6042 30.8251 30.6042 35.3666 33.8096 36.7028L54.9131 45.4987C55.8752 45.8996 56.9578 45.8996 57.9199 45.4987L79.0234 36.7028C82.229 35.3666 82.229 30.825 79.0234 29.4889L57.9199 20.693Z" fill="white"/>
</svg>
