<svg width="2221" height="584" viewBox="0 0 2221 584" fill="none" xmlns="http://www.w3.org/2000/svg">
<path d="M677.248 82.1251V458.782C677.248 486.768 654.56 509.455 626.574 509.455L423.166 530.984C409.804 532.399 397.016 537.164 385.987 544.84L369.094 567.757C352.518 590.243 318.553 589.144 303.466 565.633L291.521 547.02C279.813 537.945 265.809 532.311 251.079 530.747L50.6732 509.455C22.6866 509.455 0 486.768 0 458.782V82.1251C0 54.1386 22.6866 31.4519 50.6732 31.4519L253.923 0.926665C266.702 -0.99333 279.757 1.29068 291.125 7.43466L308.781 23.936C323.273 37.4813 345.505 38.3546 361.015 25.9866L386.383 5.75868C397.083 0.681364 409.054 -1.09466 420.767 0.657338L626.574 31.4519C654.56 31.4519 677.248 54.1386 677.248 82.1251Z" fill="#0A0A0A"/>
<path d="M201.096 207.073L235.433 221.366L263.975 233.241H263.981L324.339 258.368C325.167 258.714 326.001 259.015 326.851 259.278C332.597 261.066 338.765 260.999 344.478 259.092C345.127 258.872 345.77 258.631 346.407 258.368L407.594 232.907L436.131 221.026L469.224 207.254C488.209 199.347 488.209 172.45 469.224 164.543L345.974 113.249C338.912 110.304 330.969 110.304 323.906 113.249L201.096 164.363C182.104 172.269 182.104 199.166 201.096 207.073Z" fill="#C0D72F"/>
<path d="M470.473 259.075L446.103 248.933C439.72 246.277 432.54 246.275 426.157 248.933L374.845 270.287L354.833 278.615C351.549 279.986 348.167 280.995 344.712 281.636C341.648 282.218 338.528 282.503 335.376 282.503C332.58 282.503 329.806 282.278 327.08 281.823C323.264 281.192 319.526 280.123 315.912 278.615L296.718 270.627L245.419 249.27C239.034 246.611 231.854 246.611 225.468 249.269L202.345 258.894C183.354 266.801 183.354 293.698 202.345 301.604L212.318 305.754L240.85 317.635H240.855L325.59 352.899C332.651 355.838 340.595 355.844 347.657 352.899L431.957 317.811H431.963L460.5 305.935L470.473 301.784C489.46 293.879 489.46 266.981 470.473 259.075Z" fill="#C0D72F"/>
<path d="M470.473 333.841C464.089 331.185 456.911 331.185 450.528 333.841L356.084 373.147C349.883 375.729 343.336 377.033 336.62 377.033C329.904 377.033 323.358 375.729 317.158 373.147L222.291 333.661C215.907 331.004 208.729 331.004 202.345 333.66C183.354 341.567 183.354 368.464 202.345 376.371L325.59 427.665C332.651 430.604 340.595 430.604 347.657 427.665L470.473 376.551C489.46 368.645 489.46 341.748 470.473 333.841Z" fill="#C0D72F"/>
<path d="M1033.29 117.802C1028.47 117.802 1024.31 121.214 1023.37 125.95L1001.67 235.591L1000.01 244.235C997.92 255.128 982.351 255.196 980.165 244.322L978.351 235.292L953.812 125.705C952.778 121.086 948.678 117.802 943.944 117.802H821.943L794.141 468.18H884.127L893.394 262.199C893.652 251.262 909.324 249.724 911.703 260.403L946.671 417.374C948.731 426.624 956.936 433.201 966.411 433.201H1011.4C1021.15 433.201 1029.51 426.248 1031.29 416.661L1060.12 261.011C1062.02 250.738 1077.06 251.762 1077.55 262.199L1092.8 468.18H1185.77L1160.07 117.802H1033.29Z" fill="#0A0A0A"/>
<path d="M1335.13 415.266C1335.13 415.266 1334.53 415.864 1333.34 417.059C1332.14 418.056 1330.35 419.152 1327.96 420.348C1325.76 421.344 1323.37 421.842 1320.78 421.842C1303.84 421.842 1295.37 409.385 1295.37 384.473C1295.37 370.521 1298.95 360.257 1306.13 353.681C1313.3 346.904 1322.97 343.515 1335.13 343.515V415.266ZM1427.51 323.186C1427.51 301.263 1425.81 283.227 1422.43 269.076C1419.04 254.725 1413.26 242.966 1405.09 233.798C1397.11 224.431 1386.65 217.854 1373.69 214.066C1360.74 210.081 1344.3 208.088 1324.37 208.088C1301.85 208.088 1279.72 211.476 1258 218.253C1236.27 224.829 1218.64 232.502 1205.08 241.272L1224.22 281.93C1231.79 277.943 1242.25 274.555 1255.61 271.766C1268.96 268.776 1281.82 267.281 1294.17 267.282C1308.52 267.282 1318.89 269.773 1325.26 274.755C1331.84 279.738 1335.13 288.308 1335.13 300.466V305.847C1328.35 305.847 1321.28 306.146 1313.9 306.743C1306.53 307.342 1298.16 308.538 1288.79 310.331C1279.42 312.124 1270.45 314.416 1261.88 317.207C1253.51 319.798 1245.14 323.485 1236.77 328.269C1228.4 332.853 1221.23 338.134 1215.25 344.114C1209.27 350.093 1204.38 357.467 1200.6 366.237C1196.81 374.807 1194.92 384.274 1194.92 394.637C1194.92 447.851 1221.82 474.459 1275.64 474.459C1283.61 474.459 1291.38 473.263 1298.96 470.871C1306.53 468.679 1312.91 465.989 1318.09 462.8C1323.47 459.611 1328.15 456.422 1332.14 453.232C1336.33 450.044 1339.42 447.254 1341.41 444.862L1344.39 441.574L1353.97 468.18H1435.88L1427.51 444.862V323.186Z" fill="#0A0A0A"/>
<path d="M1637.34 208.087C1629.57 208.087 1621.6 209.682 1613.42 212.871C1605.46 215.86 1598.58 219.547 1592.8 223.932C1587.02 228.117 1581.73 232.402 1576.95 236.787C1572.37 241.172 1568.88 244.958 1566.49 248.147L1562.9 252.631V214.066H1512.08L1447.8 231.704V263.694L1465.74 274.754V468.18H1562.3V293.888C1562.7 293.489 1563.4 292.891 1564.4 292.093C1565.59 291.098 1566.39 290.401 1566.79 290.001C1567.39 289.602 1568.18 289.005 1569.18 288.208C1570.38 287.211 1571.27 286.513 1571.87 286.115C1572.47 285.716 1573.26 285.217 1574.26 284.62C1575.26 283.823 1576.16 283.325 1576.95 283.125C1577.75 282.726 1578.65 282.328 1579.64 281.929C1580.84 281.332 1581.84 280.933 1582.63 280.733C1583.63 280.534 1584.63 280.335 1585.62 280.135C1586.82 279.936 1588.01 279.836 1589.21 279.836C1605.75 279.836 1613.72 289.204 1613.12 307.939V468.18H1711.78V316.609C1711.78 315.214 1711.88 313.32 1712.08 310.928V305.547C1712.08 270.47 1706.4 245.457 1695.04 230.508C1683.88 215.561 1664.65 208.087 1637.34 208.087Z" fill="#0A0A0A"/>
<path d="M1869.4 415.266C1869.4 415.266 1868.8 415.864 1867.61 417.059C1866.41 418.056 1864.62 419.152 1862.23 420.348C1860.03 421.344 1857.64 421.842 1855.05 421.842C1838.11 421.842 1829.64 409.385 1829.64 384.473C1829.64 370.522 1833.22 360.258 1840.4 353.681C1847.58 346.904 1857.24 343.515 1869.4 343.515V415.266ZM1961.78 323.186C1961.78 301.263 1960.08 283.227 1956.7 269.076C1953.31 254.725 1947.53 242.966 1939.36 233.798C1931.38 224.431 1920.92 217.854 1907.96 214.066C1895.01 210.081 1878.57 208.088 1858.64 208.088C1836.12 208.088 1813.99 211.476 1792.27 218.253C1770.55 224.829 1752.91 232.502 1739.35 241.272L1758.49 281.93C1766.06 277.943 1776.52 274.555 1789.87 271.766C1803.23 268.776 1816.08 267.281 1828.44 267.282C1842.79 267.282 1853.16 269.773 1859.53 274.755C1866.11 279.738 1869.4 288.308 1869.4 300.466V305.847C1862.62 305.847 1855.55 306.146 1848.17 306.743C1840.8 307.342 1832.43 308.538 1823.06 310.331C1813.69 312.124 1804.72 314.416 1796.15 317.207C1787.78 319.798 1779.41 323.485 1771.04 328.269C1762.67 332.853 1755.5 338.134 1749.52 344.114C1743.54 350.093 1738.65 357.467 1734.87 366.237C1731.08 374.807 1729.19 384.274 1729.19 394.637C1729.19 447.851 1756.09 474.459 1809.91 474.459C1817.88 474.459 1825.65 473.263 1833.22 470.871C1840.8 468.679 1847.18 465.989 1852.36 462.8C1857.74 459.611 1862.42 456.422 1866.41 453.232C1870.6 450.044 1873.68 447.254 1875.68 444.862L1878.66 441.574L1888.24 468.18H1970.15L1961.78 444.862V323.186Z" fill="#0A0A0A"/>
<path d="M2119.89 415.266C2119.89 415.266 2119.3 415.863 2118.1 417.059C2116.9 418.056 2115.11 419.152 2112.72 420.348C2110.53 421.344 2108.13 421.842 2105.54 421.842C2088.6 421.842 2080.13 409.385 2080.13 384.473C2080.13 370.521 2083.72 360.257 2090.89 353.681C2098.07 346.904 2107.73 343.515 2119.89 343.515V415.266ZM2212.27 444.862V323.186C2212.27 301.263 2210.58 283.227 2207.19 269.076C2203.8 254.725 2198.02 242.966 2189.85 233.798C2181.88 224.431 2171.41 217.854 2158.46 214.066C2145.5 210.081 2129.06 208.088 2109.13 208.088C2086.61 208.088 2064.48 211.476 2042.76 218.253C2021.04 224.829 2003.4 232.502 1989.85 241.272L2008.98 281.93C2016.55 277.943 2027.02 274.555 2040.37 271.766C2053.72 268.776 2066.58 267.281 2078.93 267.282C2093.29 267.282 2103.65 269.773 2110.03 274.755C2116.61 279.738 2119.89 288.307 2119.89 300.466V305.847C2113.12 305.847 2106.04 306.146 2098.67 306.743C2091.29 307.342 2082.92 308.538 2073.55 310.331C2064.19 312.124 2055.22 314.416 2046.65 317.207C2038.28 319.798 2029.91 323.485 2021.54 328.269C2013.17 332.853 2005.99 338.134 2000.01 344.114C1994.03 350.093 1989.15 357.467 1985.36 366.237C1981.57 374.807 1979.68 384.274 1979.68 394.637C1979.68 447.851 2006.59 474.459 2060.4 474.459C2068.37 474.459 2076.14 473.263 2083.72 470.871C2091.29 468.679 2097.67 465.989 2102.85 462.8C2108.23 459.611 2112.92 456.422 2116.9 453.232C2121.09 450.044 2124.18 447.254 2126.17 444.862L2129.16 441.574L2138.73 468.18H2220.64L2212.27 444.862Z" fill="#0A0A0A"/>
</svg>
